<?xml version="1.0" encoding="UTF-8"?>
<!-- Generator: Adobe Illustrator 16.0.0, SVG Export Plug-In . SVG Version: 6.00 Build 0)  -->
<!DOCTYPE svg PUBLIC "-//W3C//DTD SVG 1.1//EN" "http://www.w3.org/Graphics/SVG/1.1/DTD/svg11.dtd">
<svg version="1.1" id="Calque_1" xmlns="http://www.w3.org/2000/svg" xmlns:xlink="http://www.w3.org/1999/xlink" x="0px" y="0px" width="379px" height="286px" viewBox="0 0 379 286" enable-background="new 0 0 379 286" xml:space="preserve">
<g>
	<path fill="#348BC9" d="M355.57,170.943H254.64c-5.205,0-9.428,4.221-9.428,9.431v65.721c0,5.214,4.221,9.431,9.428,9.431h100.93   c5.205,0,9.428-4.217,9.428-9.431v-65.721C364.997,175.165,360.777,170.943,355.57,170.943z M311.881,181.581   c0.985-0.351,1.99-0.653,3.018-0.906v10.593c-0.152-0.136-0.289-0.279-0.446-0.41c-0.831-0.691-1.69-1.223-2.57-1.588   L311.881,181.581L311.881,181.581z M291.576,221.203c-0.834-2.874-1.287-5.905-1.287-9.053c0-3.146,0.453-6.178,1.287-9.053   V221.203z M296.243,200.184c-1.272,2.652-2.143,5.479-2.745,8.338c-0.008,2.795,0.87,3.82,2.745,3.537v18.809   c-1.163-1.639-2.174-3.391-3.02-5.233V198.67c0.846-1.847,1.856-3.6,3.02-5.236V200.184z M300.906,236.15   c-1.076-0.979-2.084-2.031-3.02-3.146v-21.343c1.014-0.285,2.017-0.606,3.02-0.938V236.15z M300.906,193.439   c-1.156,1.182-2.156,2.449-3.02,3.787v-5.931c0.938-1.112,1.943-2.168,3.02-3.147V193.439z M305.57,239.672   c-1.049-0.652-2.054-1.363-3.02-2.132v-27.349c0.41-0.127,0.813-0.256,1.225-0.373c0.603-0.17,1.197-0.336,1.795-0.477V239.672   L305.57,239.672z M305.568,189.754c-0.084,0.049-0.173,0.094-0.26,0.146c-0.996,0.623-1.908,1.298-2.758,2.012v-5.151   c0.966-0.768,1.973-1.481,3.02-2.135L305.568,189.754z M310.236,224.627c-0.911,1.771-1.629,3.643-2.03,5.68   c-0.521,2.644,0.251,5.069,2.03,6.933v4.848c-1.035-0.435-2.043-0.91-3.018-1.444v-31.609c1.016-0.143,2.022-0.158,3.018,0.031   V224.627z M310.236,188.8c-0.99-0.157-2-0.096-3.018,0.22v-5.362c0.976-0.529,1.981-1.011,3.018-1.443V188.8z M311.88,209.593   c0.512,0.238,1.016,0.539,1.517,0.933c0.886,0.695,1.172-0.026,1.316-0.698c0.051-0.233,0.125-0.445,0.186-0.667l-0.001,8.589   c-1.065,1.319-2.095,2.66-3.018,4.062V209.593z M311.882,242.72v-4.116c0.525,0.35,1.095,0.67,1.715,0.946   c0.43,0.188,0.865,0.354,1.302,0.507l0.002,3.568C313.873,243.372,312.868,243.068,311.882,242.72z M319.563,244.428   c-1.024-0.1-2.028-0.25-3.021-0.438v-3.461c0.992,0.24,1.997,0.41,3.021,0.539V244.428z M319.563,218.932   c-0.877-0.398-1.71-0.961-2.489-1.723c-0.186-0.179-0.36-0.301-0.53-0.373v-3.906c0.438,1.688,1.54,3.104,3.021,3.945   L319.563,218.932L319.563,218.932z M319.563,205.799c-1.48,0.844-2.585,2.258-3.021,3.943v-3.729   c0.802-0.937,1.809-1.681,3.021-2.228V205.799z M319.563,197.428c-0.849-1.604-1.827-3.123-3.021-4.5v-12.613   c0.994-0.189,1.998-0.34,3.021-0.439V197.428z M324.226,244.544c-0.498,0.021-1.002,0.037-1.507,0.037   c-0.507,0-1.006-0.019-1.51-0.037v-3.299c0.993,0.09,2,0.164,3.018,0.246L324.226,244.544z M324.227,219.5   c-1.053,0.166-2.059,0.15-3.018-0.039v-1.936c0.481,0.117,0.983,0.187,1.502,0.187c0.524,0,1.028-0.071,1.516-0.188V219.5z    M322.713,204.962c-0.519,0-1.021,0.067-1.501,0.187V203.1c0.499-0.336,0.562-0.812,0.266-1.529   c-0.086-0.211-0.179-0.418-0.266-0.627v-21.187c0.503-0.021,1.005-0.034,1.509-0.034c0.505,0,1.008,0.014,1.506,0.034l0.004,25.396   C323.741,205.031,323.238,204.962,322.713,204.962z M328.893,243.991c-0.991,0.188-1.998,0.339-3.021,0.438v-3.1   c0.998-0.112,2.011-0.246,3.021-0.425V243.991z M328.893,228.812c-1.42-1.414-2.619-2.926-3.021-4.781v-2.729   c0.078-0.401,0.179-0.817,0.328-1.252c0.195-0.573-0.012-0.767-0.328-0.804v-2.378c1.49-0.856,2.597-2.287,3.021-3.995V228.812z    M328.893,209.803c-0.425-1.709-1.531-3.146-3.021-3.996v-25.934c1.021,0.102,2.028,0.25,3.021,0.439V209.803z M333.557,242.72   c-0.986,0.351-1.994,0.652-3.021,0.905v-3.051c1.02-0.234,2.026-0.539,3.021-0.917V242.72z M333.557,233.145   c-0.939-0.893-1.905-1.756-2.859-2.631c-0.053-0.047-0.104-0.095-0.16-0.145v-14.737c0.195,0.255,0.562,0.396,1.107,0.451   c0.644,0.065,1.278,0.138,1.912,0.211V233.145L333.557,233.145z M330.538,214.354v-5.979c0.767,1.877,0.797,3.867,0.005,5.962   C330.538,214.345,330.538,214.35,330.538,214.354z M333.557,200.073c-0.611,1.629-1.498,3.083-3.021,4.106v-23.506   c1.025,0.253,2.033,0.557,3.021,0.906V200.073z M335.202,182.214c1.033,0.433,2.04,0.913,3.019,1.444v3.822   c-0.971,0.092-1.71,0.979-2.212,2.664c-0.321,1.078-0.569,2.178-0.807,3.281V182.214z M338.223,240.645   c-0.979,0.53-1.984,1.011-3.021,1.444v-3.212c1.57-1.035,1.58-2.404,0-4.098v-18.293c1.021,0.123,2.018,0.242,2.957,0.352   c0.021-0.001,0.04-0.003,0.062-0.004h0.002V240.645L338.223,240.645z M342.886,237.541c-0.966,0.766-1.973,1.479-3.02,2.132   v-22.987c1.036-0.099,2.04-0.207,3.02-0.381V237.541z M342.885,186.761v3.815c-0.65-0.654-1.333-1.288-2.044-1.905   c-0.34-0.292-0.663-0.524-0.975-0.712v-3.333C340.914,185.277,341.92,185.993,342.885,186.761L342.885,186.761z M344.531,188.148   c1.076,0.979,2.084,2.033,3.019,3.147v5.211c-0.873-1.463-1.883-2.848-3.019-4.163V188.148z M347.55,233.004   c-0.936,1.115-1.942,2.166-3.018,3.146v-20.217c0.258-0.072,0.516-0.149,0.771-0.236c0.831-0.283,1.581-0.655,2.246-1.09h0.001   V233.004z M352.213,225.633c-0.847,1.842-1.857,3.596-3.019,5.232v-17.667c1.58-1.771,2.26-4.166,1.851-6.894   c-0.353-2.338-0.98-4.516-1.851-6.556v-6.315c1.162,1.642,2.172,3.392,3.019,5.236V225.633z M353.861,221.202v-18.104   c0.832,2.875,1.29,5.906,1.29,9.053C355.151,215.296,354.694,218.329,353.861,221.202z"/>
	<path fill="#348BC9" d="M70.292,111.661h42.352c2.361,0,4.275-1.964,4.275-4.385v-6.313c0-2.421-1.914-4.385-4.275-4.385H70.292   c-2.361,0-4.275,1.964-4.275,4.385v6.313C66.018,109.697,67.931,111.661,70.292,111.661z M75.333,100.009   c2.024,0,3.667,1.642,3.667,3.666c0,2.025-1.643,3.667-3.667,3.667c-2.025,0-3.667-1.642-3.667-3.667   C71.667,101.65,73.309,100.009,75.333,100.009z"/>
	<path fill="#348BC9" d="M181,282h29v-36c-9.806,0.003-21.06,0.007-29,0.01V282z"/>
	<path fill="#348BC9" d="M181,221.105c8.028,0,19.243-0.008,29-0.016V3h-29V221.105z"/>
	<path fill="#348BC9" d="M210,231.452c-9.806,0.005-21.06,0.01-29,0.012v4.188c8.071-0.006,19.268-0.014,29-0.021V231.452z"/>
	<path fill="#348BC9" d="M193,222.523c-6.138,0-10.414-0.002-10.75-0.01c-1.392-0.027-2.776-0.134-4.144-0.418   c-3.516-0.731-4.31-3.594-4.699-6.755c-0.722-5.823-2.744-10.448-8.494-12.7c-8.062-3.156-19.951-1.494-28.412-1.525v7.354   c2.008-0.011,7.224-0.083,9.218-0.13c5.374-0.127,11.917-0.807,16.956,1.497c2.702,1.236,2.985,3.838,3.316,6.514   c0.435,3.518,1.268,6.344,3.478,9.151c3.099,3.938,8.372,4.517,13.282,4.545c0.294,0.002,4.362,0.002,10.25,0   c7.94-0.002,19.194-0.007,29-0.012c11.115-0.007,20.361-0.015,20.785-0.021v-7.539c-0.5,0.01-9.701,0.021-20.785,0.031   C212.243,222.516,201.029,222.521,193,222.523z"/>
	<path fill="#348BC9" d="M193,237.068c-6.235,0.005-10.606,0.01-11,0.014c-4.949,0.05-10.956-0.027-14.82-1.335   c-5.435-1.839-3.543-9.11-5.363-13.38c-4.185-9.82-16.575-6.904-25.314-7.391v7.545c4.76,0.328,9.531-0.254,14.285,0.201   c5.706,0.543,4.597,6.723,5.415,10.892c2.06,10.489,16.868,11.026,26.549,10.983c0.31-0.002,4.374-0.004,10.25-0.006   c7.94-0.003,19.194-0.007,29-0.01c11.129-0.004,20.386-0.007,20.785-0.009v-7.541c-0.476,0.003-9.678,0.009-20.785,0.016   C212.268,237.055,201.072,237.062,193,237.068z"/>
	<path fill="#348BC9" d="M265.693,103.877c0.521,1.013,3.884,1.884,4.998,1.27c2.018-1.115,4.036-2.227,6.025-3.394   c1.133-0.664,1.49-0.328,1.43,0.89c-0.047,1.009-0.024,2.023,0.003,3.034c0.034,1.279,1.507,3.002,2.491,2.954   c1.051-0.051,2.664-1.847,2.675-3.031c0.021-2.305,0.024-4.609,0.002-6.913c-0.008-0.796,0.16-1.419,0.941-1.803   c1.312-0.642,2.609-1.317,3.896-2.009c0.847-0.455,1.109-0.133,1.102,0.714c-0.013,1.293,0.023,2.585-0.002,3.879   c-0.028,1.326,0.418,1.634,1.581,0.888c1.483-0.956,3.012-1.842,4.787-2.92c0,1.792-0.06,3.194,0.018,4.588   c0.063,1.152-0.34,1.895-1.369,2.44c-1.688,0.896-3.314,1.9-4.976,2.85c-1.585,0.91-2.317,3.1-1.514,4.56   c0.817,1.483,2.744,1.857,4.435,0.853c0.679-0.399,1.378-0.767,2.024-1.214c1.158-0.795,1.415-0.308,1.394,0.857   c-0.041,2.021,0.166,4.067-0.059,6.065c-0.247,2.2,1.238,2.952,2.657,3.828c1.271,0.783,1.89-0.554,2.777-0.972   c0.912-0.433,1.219-1.227,1.182-2.227c-0.052-1.349-0.052-2.702,0.002-4.047c0.05-1.277-0.584-3.19,0.278-3.674   c1.077-0.607,2.276,0.996,3.44,1.599c1.413,0.73,3.432,0.402,4.116-0.801c0.731-1.286,0.099-3.886-1.141-4.611   c-1.847-1.076-3.684-2.163-5.554-3.196c-0.839-0.463-1.203-1.084-1.162-2.042c0.049-1.179,0.036-2.361,0-3.54   c-0.028-0.943,0.2-1.275,1.134-0.714c1.154,0.697,2.343,1.341,3.532,1.973c1.489,0.791,1.667,0.677,1.706-1.058   c0.02-0.956,0.035-1.915,0-2.868c-0.053-1.327,0.452-1.43,1.487-0.806c1.061,0.635,2.158,1.211,3.275,1.738   c0.882,0.418,1.21,1.029,1.188,1.997c-0.049,2.193-0.021,4.385-0.011,6.578c0.007,1.45,1.421,3.202,2.581,3.221   c1.098,0.021,2.562-1.808,2.594-3.253c0.02-0.785-0.002-1.572,0.009-2.36c0.026-1.871,0.155-1.962,1.753-1.095   c1.878,1.018,3.726,2.092,5.61,3.094c1.266,0.673,4.764-0.522,5.145-1.703c0.61-1.895-0.052-3.621-1.787-4.679   c-1.68-1.025-3.365-2.042-5.029-3.092c-0.34-0.215-0.89-0.293-0.856-0.985c1.141-0.646,2.307-1.314,3.479-1.971   c0.669-0.373,1.186-0.804,1.188-1.679c0.007-1.352,0.091-2.549-1.363-3.491c-1.449-0.939-2.531-0.779-3.81,0.103   c-0.733,0.506-1.671,0.746-2.354,1.304c-2.792,2.285-5.533,2.191-8.307,0.016c-0.332-0.262-0.982-0.25-0.958-0.799   c0.017-0.418,0.55-0.5,0.878-0.697c1.11-0.662,2.223-1.32,3.344-1.966c0.783-0.453,0.742-0.876,0.008-1.339   c-1.138-0.722-2.253-1.486-3.405-2.186c-0.748-0.455-0.832-0.822-0.039-1.312c1.003-0.621,2.012-1.242,2.956-1.947   c0.986-0.738,1.861-0.763,2.925-0.09c1.897,1.197,3.87,2.285,5.821,3.398c1.183,0.677,3.476,0.046,4.113-1.099   c0.692-1.246,0.09-3.579-1.094-4.282c-1.27-0.753-2.685-1.275-3.896-2.393c2.146-1.229,4.09-2.475,6.154-3.476   c1.65-0.799,2.296-1.88,2.126-3.706c-0.192-2.064-2.907-3.828-4.753-2.893c-1.705,0.861-3.374,1.796-5.062,2.689   c-2.786,1.472-2.788,1.468-2.791-1.604c0-0.562,0.011-1.123-0.006-1.685c-0.039-1.477-1.315-2.896-2.639-2.948   c-1.252-0.049-2.523,1.427-2.536,2.962c-0.01,1.236-0.004,2.475-0.004,3.711c0,4.996-0.013,4.972-4.448,7.256   c-1.069,0.549-1.534,0.487-1.489-0.833c0.04-1.291-0.008-2.583,0.002-3.879c0.006-1.11-0.404-1.449-1.435-0.853   c-1.114,0.65-2.29,1.21-3.381,1.898c-1.115,0.705-1.705,0.757-1.563-0.845c0.084-0.949,0.084-1.917-0.002-2.866   c-0.112-1.254,0.42-1.945,1.542-2.464c2.294-1.062,4.548-2.216,6.787-3.391c1.728-0.906,1.689-3.604,0.058-4.683   c-1.539-1.017-2.971-1.443-4.584-0.144c-0.644,0.517-1.502,0.759-2.224,1.193c-1.086,0.647-1.639,0.549-1.573-0.884   c0.061-1.29-0.107-2.598,0.035-3.877c0.306-2.693-0.101-5.002-2.796-6.339c-0.34,0-0.678,0-1.014,0   c-0.295,0.258-0.552,0.599-0.895,0.759c-1.617,0.759-2.004,2.042-1.908,3.727c0.117,2.016,0.019,4.045,0.027,6.068   c0.004,0.874-0.287,1.161-1.104,0.656c-0.957-0.591-1.956-1.113-2.889-1.74c-0.793-0.535-1.457-0.572-2.308-0.031   c-2.589,1.646-2.551,4.377,0.139,5.902c0.732,0.416,1.468,0.833,2.188,1.27c4.879,2.954,3.838,1.22,3.977,6.986   c0,0.058-0.005,0.11,0,0.168c0.084,1.044-0.244,1.365-1.23,0.777c-0.964-0.576-1.967-1.089-2.961-1.615   c-2.138-1.132-2.104-1.109-2.199,1.244c-0.054,1.359,0.695,3.35-0.405,3.907c-0.99,0.505-2.354-1.166-3.623-1.738   c-1.082-0.486-1.371-1.328-1.328-2.46c0.078-2.134-0.067-4.283,0.112-6.404c0.177-2.075-1.403-2.518-2.67-3.211   c-1.2-0.66-1.754,0.632-2.546,1.14c-0.57,0.365-0.621,1.033-0.625,1.665c-0.009,1.123-0.035,2.251-0.007,3.374   c0.029,1.079-0.336,1.309-1.289,0.759c-1.751-1.011-3.592-1.88-5.285-2.979c-1.494-0.97-2.833-1.031-4.371-0.146   c-0.92,0.531-1.772,0.92-1.645,2.214c0.134,1.333-0.391,2.773,1.397,3.579c2.046,0.919,3.94,2.161,5.938,3.194   c1.162,0.599,0.959,0.988-0.043,1.495c-0.951,0.481-1.867,1.035-2.793,1.568c-1.293,0.75-1.957,3.145-1.217,4.362   c0.631,1.037,3.253,1.749,4.342,1.13c2.005-1.138,3.989-2.309,5.977-3.479c0.604-0.356,1.162-0.613,1.871-0.181   c1.152,0.701,2.338,1.348,3.524,1.984c0.785,0.423,0.862,0.79,0.049,1.271c-1.21,0.718-2.395,1.472-3.589,2.21   c-0.749,0.459-0.775,0.902,0.021,1.337c0.348,0.188,0.697,0.367,1.025,0.586c1.113,0.742,3.219,1.21,3.196,2.137   c-0.032,1.228-2.12,1.48-3.202,2.322c-1.044,0.812-1.997,0.71-3.077-0.004c-1.497-0.99-3.178-1.724-4.606-2.798   c-1.563-1.173-2.846-0.952-4.44-0.054c-1.344,0.757-1.26,1.792-1.311,2.98c-0.05,1.154,0.321,1.903,1.432,2.366   c1.36,0.567,2.666,1.271,4.231,2.029c-2.578,1.468-4.871,2.764-7.155,4.076C265.734,99.859,264.965,102.475,265.693,103.877z    M293.783,82.193l-0.397-5.697l5.134,2.505l4.737-3.194l0.396,5.699l5.134,2.506l-4.734,3.193l0.396,5.7l-5.135-2.508l-4.737,3.194   l-0.396-5.699l-5.135-2.506L293.783,82.193z"/>
</g>
<path fill="#368BC8" d="M158,277.333h-6v-1.974h6.533c0.797,0,1.442-0.646,1.442-1.442s-0.646-1.442-1.442-1.442H152v-1.74h6  c0.92,0,1.667-0.746,1.667-1.666c0-0.922-0.746-1.668-1.667-1.668h-6.014c-0.065-1.576-1.299-1.564-2.821-1.564l-12.331,0.426  c-1.565,0,0,0-2.834,3.104l-4.252,1.72v0.451c-15.711-1.251-29.771-10.406-45.926-8.867c-14.83,1.414-32.053,7.503-44.821-3.651  c-12.001-10.483-6.357-34.612,8.893-35.822v11.445c0,3.541,2.871,6.414,6.413,6.414h74.148c3.541,0,6.413-2.873,6.413-6.414V90.992  c0-3.542-2.872-6.413-6.413-6.413H113V36.5c0-9.533-9.397-17-21.394-17H2v10h89.606c6.715,0,11.394,3.689,11.394,7v48.079H82.468  V64.5c0-9.533-9.397-17-21.394-17H2v10h59.074c6.715,0,11.394,3.689,11.394,7v20.079H54.307c-3.542,0-6.413,2.871-6.413,6.413  v127.137c-17.266,1.021-25.917,24.783-16.471,39.668c7.989,12.589,25.091,14.135,38.436,12.165  c5.796-0.854,11.471-2.178,17.334-2.565c6.37-0.422,12.288,1.467,18.25,3.451c8.129,2.704,15.943,5.252,24.306,5.758v0.451  l4.252,1.433c2.625,2.762,1.269,3.104,2.834,3.104l12.331,0.425c1.448,0,2.63,0.004,2.8-1.352H158c0.92,0,1.667-0.746,1.667-1.666  C159.667,278.079,158.921,277.333,158,277.333z M114.771,199.811c-11.086,11.799-29.702,12.377-41.499,1.291  c-12.994-12.209-13.632-32.713-1.423-45.707c0.969-1.031,2.592-1.082,3.625-0.111c1.032,0.97,1.083,2.593,0.113,3.624  c-10.273,10.934-9.736,28.186,1.197,38.459c9.736,9.147,25.102,8.669,34.25-1.066c8.137-8.659,7.712-22.325-0.948-30.462  c-7.691-7.229-19.828-6.85-27.056,0.842c-6.405,6.818-6.071,17.578,0.747,23.985c6.059,5.692,14.96,5.371,20.708-0.746  c5.143-5.474,2.459-13.69-1.358-17.278c-2.683-2.521-5.809-2.675-7.433-2.543c-2.542,0.206-4.948,1.336-6.131,2.877  c-2.084,2.719-2.236,5.17-1.999,6.748c0.326,2.15,1.503,3.668,2.417,4.312c1.489,1.054,4.092,0.61,5.255-0.46  c0.55-0.508,0.783-1.068,0.135-2.17c-0.72-1.221-0.313-2.793,0.906-3.512c1.22-0.72,2.788-0.311,3.512,0.906  c1.78,3.021,1.366,6.297-1.08,8.549c-3.099,2.851-8.342,3.241-11.69,0.872c-2.347-1.668-4.042-4.553-4.522-7.729  c-0.39-2.562-0.184-6.486,2.999-10.636c2.055-2.681,5.804-4.547,9.784-4.869c4.268-0.348,8.303,1.045,11.359,3.918  c8.536,8.021,6.405,19.396,1.585,24.525c-7.625,8.114-19.904,8.541-27.958,0.973c-8.879-8.342-9.314-22.354-0.972-31.233  c9.164-9.752,24.552-10.231,34.304-1.067C124.318,172.173,124.845,189.09,114.771,199.811z M61.844,99.598L61.844,99.598  c0.001-3.541,2.872-6.412,6.414-6.412h45.995c3.542,0,6.413,2.871,6.413,6.412v8.667c0,3.541-2.871,6.412-6.413,6.412H68.257  c-3.542,0-6.413-2.871-6.413-6.412V99.598z"/>
</svg>